<svg width="41" height="41" viewBox="0 0 41 41" fill="none" xmlns="http://www.w3.org/2000/svg">
<path d="M20.6708 3.41675C20.3292 3.41675 19.8167 3.58758 19.475 3.92925L16.0583 7.00425L11.7875 6.32091C10.7625 6.15008 9.90833 6.83341 9.7375 7.85841L9.05417 12.1292L5.125 14.1792C4.27083 14.6917 3.92917 15.7167 4.27083 16.5709L6.32083 20.5001L4.44167 24.4292C4.1 25.2834 4.44167 26.3084 5.125 26.8209L9.05417 28.8709L9.7375 33.1417C9.90833 34.1667 10.7625 34.6792 11.7875 34.6792L16.0583 33.9959L19.1333 37.0709C19.8167 37.7542 20.8417 37.7542 21.525 37.0709L24.6 33.9959L28.8708 34.6792C29.8958 34.8501 30.75 34.1667 30.9208 33.1417L31.6042 28.8709L35.5333 26.8209C36.3875 26.3084 36.7292 25.2834 36.2167 24.4292L34.6792 20.5001L36.5583 16.5709C36.9 15.7167 36.5583 14.6917 35.875 14.1792L31.9458 12.1292L31.2625 7.85841C31.0917 6.83341 30.2375 6.32091 29.2125 6.32091L24.9417 7.00425L21.8667 3.92925C21.525 3.58758 21.0125 3.41675 20.6708 3.41675ZM16.9125 11.9584C17.9375 11.9584 18.7917 12.3001 19.3042 12.9834C19.9875 13.6667 20.1583 14.3501 20.1583 15.3751V16.2292C20.1583 17.2542 19.8167 18.1084 19.3042 18.6209C18.7917 19.3042 17.9375 19.6459 16.9125 19.6459C15.8875 19.6459 15.0333 19.3042 14.5208 18.7917C14.0083 18.1084 13.6667 17.2542 13.6667 16.2292V15.3751C13.6667 14.3501 14.0083 13.6667 14.5208 12.9834C15.0333 12.3001 15.8875 11.9584 16.9125 11.9584ZM16.9125 13.6667C16.5708 13.6667 16.2292 14.0084 16.0583 14.1792C15.8875 14.5209 15.7167 14.8626 15.7167 15.3751V16.2292C15.7167 16.7417 15.8875 17.0834 16.0583 17.4251C16.2292 17.7667 16.5708 17.9376 16.9125 17.9376C17.2542 17.9376 17.5958 17.7667 17.7667 17.4251C17.9375 17.0834 18.1083 16.7417 18.1083 16.2292V15.3751C18.1083 14.8626 17.9375 14.5209 17.7667 14.1792C17.5958 13.8376 17.2542 13.6667 16.9125 13.6667ZM23.2333 13.6667L24.7708 14.5209L17.7667 27.5042L16.2292 26.6501L23.2333 13.6667ZM24.0875 21.3542C25.1125 21.3542 25.9667 21.6959 26.4792 22.3792C26.9917 23.0626 27.3333 23.9167 27.3333 24.7709V25.6251C27.3333 26.6501 26.9917 27.5042 26.4792 28.0167C25.9667 28.5292 25.1125 29.0417 24.0875 29.0417C23.0625 29.0417 22.2083 28.7001 21.6958 28.0167C21.1833 27.3334 20.8417 26.4792 20.8417 25.6251V24.7709C20.8417 23.7459 21.1833 23.0626 21.6958 22.3792C22.2083 21.6959 23.0625 21.3542 24.0875 21.3542ZM24.0875 23.0626C23.7458 23.0626 23.4042 23.2334 23.2333 23.5751C23.0625 23.9167 22.8917 24.2584 22.8917 24.7709V25.6251C22.8917 26.1376 23.0625 26.4792 23.2333 26.8209C23.4042 27.1626 23.7458 27.3334 24.0875 27.3334C24.6 27.3334 24.7708 27.1626 24.9417 26.8209C25.1125 26.4792 25.1125 26.1376 25.1125 25.6251V24.7709C25.1125 24.2584 24.9417 23.9167 24.7708 23.5751C24.7708 23.2334 24.4292 23.0626 24.0875 23.0626Z" fill="#0088CF"/>
</svg>
