<svg width="18" height="22" viewBox="0 0 18 22" fill="none" xmlns="http://www.w3.org/2000/svg">
<path d="M8.98449 11.4627C4.21094 11.4717 0.262037 15.251 0.0235561 20.0272C0.0172081 20.1627 0.0385071 20.2981 0.0861568 20.4252C0.133807 20.5522 0.20681 20.6682 0.300725 20.7662C0.394639 20.8641 0.5075 20.9419 0.632438 20.9948C0.757375 21.0477 0.891777 21.0747 1.02746 21.074H16.9806C17.1156 21.0736 17.2492 21.0459 17.3732 20.9925C17.4972 20.9391 17.6091 20.8611 17.7022 20.7633C17.7953 20.6655 17.8676 20.5498 17.9148 20.4233C17.9619 20.2968 17.983 20.162 17.9767 20.0272C17.7379 15.245 13.7797 11.4632 9.00012 11.4627H8.98449Z" fill="#0088CF"/>
<path d="M9.00036 0.926025C6.46995 0.926025 4.407 2.99868 4.40698 5.53191C4.40698 8.06514 6.46993 10.1449 9.00036 10.1449C11.5308 10.1449 13.6009 8.06514 13.6009 5.53191C13.6009 2.99868 11.5308 0.926025 9.00036 0.926025Z" fill="#0088CF"/>
</svg>
