<svg width="38" height="38" viewBox="0 0 38 38" fill="none" xmlns="http://www.w3.org/2000/svg">
<path d="M29.6689 25.9695C29.9405 26.429 30.0772 26.9648 30.0772 27.5789C30.0772 28.5211 29.7965 29.3048 29.2355 29.9335C28.6736 30.5621 27.8648 30.9331 26.8044 31.0443V32.6562H25.4546V31.0512C23.6899 30.87 22.5975 29.8425 22.1753 27.9732L24.2623 27.4286C24.4549 28.6045 25.0953 29.1933 26.1827 29.1933C26.6907 29.1933 27.0665 29.0683 27.3055 28.8151C27.5446 28.5628 27.6652 28.2609 27.6652 27.9038C27.6652 27.5346 27.5446 27.2543 27.3055 27.0664C27.0665 26.8763 26.5332 26.6355 25.7075 26.3431C24.9655 26.0858 24.3855 25.8324 23.9677 25.5778C23.5506 25.3271 23.2118 24.9768 22.9523 24.5244C22.6898 24.07 22.5601 23.5411 22.5601 22.9402C22.5601 22.1515 22.7944 21.4398 23.2582 20.8086C23.7246 20.1781 24.4549 19.7931 25.4546 19.6518V18.4063H26.8043V19.6518C28.3121 19.8328 29.2909 20.6862 29.7364 22.2121L27.8734 22.9749C27.5119 21.9292 26.9527 21.4051 26.1921 21.4051C25.8116 21.4051 25.5056 21.5209 25.2758 21.7553C25.044 21.9895 24.9282 22.2725 24.9282 22.6065C24.9282 22.9453 25.0393 23.2049 25.2619 23.388C25.485 23.5689 25.96 23.7941 26.6907 24.0605C27.4912 24.3529 28.122 24.6311 28.5763 24.891C29.0333 25.1511 29.3951 25.5126 29.6689 25.9695ZM38 25.5309C38 32.0903 32.6843 37.4063 26.1253 37.4063C19.5659 37.4063 14.2501 32.0903 14.2501 25.5309C14.2501 18.972 19.5659 13.656 26.1253 13.656C32.6843 13.656 38 18.972 38 25.5309ZM35.6253 25.5309C35.6253 20.2917 31.3646 16.0311 26.1253 16.0311C20.8861 16.0311 16.6252 20.2917 16.6252 25.5309C16.6252 30.7705 20.8861 35.0313 26.1253 35.0313C31.3645 35.0313 35.6253 30.7705 35.6253 25.5309ZM19 4.15609H33.2501C33.9066 4.15609 34.4373 3.75699 34.4373 3.26532V1.48401C34.4373 0.992415 33.9066 0.593628 33.2501 0.593628H19C18.3436 0.593628 17.8124 0.992415 17.8124 1.48401V3.26532C17.8125 3.75699 18.3436 4.15609 19 4.15609ZM19 8.90606H33.2501C33.9066 8.90606 34.4373 8.50712 34.4373 8.01545V6.23422C34.4373 5.74247 33.9066 5.34344 33.2501 5.34344H19C18.3436 5.34344 17.8124 5.74239 17.8124 6.23422V8.01552C17.8125 8.50712 18.3436 8.90606 19 8.90606ZM1.18736 32.6562H15.1916C14.482 31.5706 13.9323 30.3714 13.5682 29.0935H1.18736C0.531064 29.0935 0 29.4923 0 29.9846V31.7653C0 32.257 0.531064 32.6562 1.18736 32.6562ZM15.4374 33.8437H1.18736C0.531064 33.8437 0 34.2424 0 34.7341V36.5155C0 37.0071 0.531064 37.4063 1.18736 37.4063H15.4374C16.0939 37.4063 16.6252 37.0071 16.6252 36.5155V34.7341C16.6252 34.2424 16.094 33.8437 15.4374 33.8437ZM1.18736 27.9063H13.2899C13.1461 27.134 13.0628 26.3431 13.0628 25.5309C13.0628 25.1299 13.0858 24.7355 13.1229 24.3437H1.18736C0.531064 24.3437 0 24.7425 0 25.2345V27.0152C0 27.5076 0.531064 27.9063 1.18736 27.9063ZM19 13.656H20.7161C22.3653 12.9 24.1928 12.4685 26.1252 12.4685C28.0544 12.4685 29.8848 12.9 31.5337 13.656H33.2501C33.9066 13.656 34.4373 13.2571 34.4373 12.7655V10.9842C34.4373 10.4926 33.9066 10.0934 33.2501 10.0934H19C18.3436 10.0934 17.8124 10.4926 17.8124 10.9842V12.7655C17.8125 13.2571 18.3436 13.656 19 13.656ZM1.18736 13.656H15.4374C16.0939 13.656 16.6252 13.2571 16.6252 12.7655V10.9842C16.6252 10.4926 16.0939 10.0934 15.4374 10.0934H1.18736C0.531064 10.0934 0 10.4926 0 10.9842V12.7655C0 13.2571 0.531064 13.656 1.18736 13.656ZM1.18736 23.1562H13.2899C13.5218 21.8945 13.937 20.7 14.5055 19.5936H1.18736C0.531064 19.5936 0 19.9923 0 20.484V22.2658C0 22.7574 0.531064 23.1562 1.18736 23.1562ZM1.18736 18.4062H15.1916C15.6138 17.7568 16.0962 17.1537 16.6252 16.5924V15.7342C16.6252 15.2426 16.0941 14.8438 15.4378 14.8438H1.18736C0.531064 14.8438 0 15.2425 0 15.7342V17.5155C0 18.0071 0.531064 18.4062 1.18736 18.4062Z" fill="#0088CF"/>
</svg>
