<svg width="50" height="50" viewBox="0 0 50 50" fill="none" xmlns="http://www.w3.org/2000/svg">
<path d="M25.2084 4.16663C24.7917 4.16663 24.1667 4.37496 23.75 4.79163L19.5834 8.54163L14.375 7.70829C13.125 7.49996 12.0834 8.33329 11.875 9.58329L11.0417 14.7916L6.25004 17.2916C5.20837 17.9166 4.79171 19.1666 5.20837 20.2083L7.70837 25L5.41671 29.7916C5.00004 30.8333 5.41671 32.0833 6.25004 32.7083L11.0417 35.2083L11.875 40.4166C12.0834 41.6666 13.125 42.2916 14.375 42.2916L19.5834 41.4583L23.3334 45.2083C24.1667 46.0416 25.4167 46.0416 26.25 45.2083L30 41.4583L35.2084 42.2916C36.4584 42.5 37.5 41.6666 37.7084 40.4166L38.5417 35.2083L43.3334 32.7083C44.375 32.0833 44.7917 30.8333 44.1667 29.7916L42.2917 25L44.5834 20.2083C45 19.1666 44.5834 17.9166 43.75 17.2916L38.9584 14.7916L38.125 9.58329C37.9167 8.33329 36.875 7.70829 35.625 7.70829L30.4167 8.54163L26.6667 4.79163C26.25 4.37496 25.625 4.16663 25.2084 4.16663ZM20.625 14.5833C21.875 14.5833 22.9167 15 23.5417 15.8333C24.375 16.6666 24.5834 17.5 24.5834 18.75V19.7916C24.5834 21.0416 24.1667 22.0833 23.5417 22.7083C22.9167 23.5416 21.875 23.9583 20.625 23.9583C19.375 23.9583 18.3334 23.5416 17.7084 22.9166C17.0834 22.0833 16.6667 21.0416 16.6667 19.7916V18.75C16.6667 17.5 17.0834 16.6666 17.7084 15.8333C18.3334 15 19.375 14.5833 20.625 14.5833ZM20.625 16.6666C20.2084 16.6666 19.7917 17.0833 19.5834 17.2916C19.375 17.7083 19.1667 18.125 19.1667 18.75V19.7916C19.1667 20.4166 19.375 20.8333 19.5834 21.25C19.7917 21.6666 20.2084 21.875 20.625 21.875C21.0417 21.875 21.4584 21.6666 21.6667 21.25C21.875 20.8333 22.0834 20.4166 22.0834 19.7916V18.75C22.0834 18.125 21.875 17.7083 21.6667 17.2916C21.4584 16.875 21.0417 16.6666 20.625 16.6666ZM28.3334 16.6666L30.2084 17.7083L21.6667 33.5416L19.7917 32.5L28.3334 16.6666ZM29.375 26.0416C30.625 26.0416 31.6667 26.4583 32.2917 27.2916C32.9167 28.125 33.3334 29.1666 33.3334 30.2083V31.25C33.3334 32.5 32.9167 33.5416 32.2917 34.1666C31.6667 34.7916 30.625 35.4166 29.375 35.4166C28.125 35.4166 27.0834 35 26.4584 34.1666C25.8334 33.3333 25.4167 32.2916 25.4167 31.25V30.2083C25.4167 28.9583 25.8334 28.125 26.4584 27.2916C27.0834 26.4583 28.125 26.0416 29.375 26.0416ZM29.375 28.125C28.9584 28.125 28.5417 28.3333 28.3334 28.75C28.125 29.1666 27.9167 29.5833 27.9167 30.2083V31.25C27.9167 31.875 28.125 32.2916 28.3334 32.7083C28.5417 33.125 28.9584 33.3333 29.375 33.3333C30 33.3333 30.2084 33.125 30.4167 32.7083C30.625 32.2916 30.625 31.875 30.625 31.25V30.2083C30.625 29.5833 30.4167 29.1666 30.2084 28.75C30.2084 28.3333 29.7917 28.125 29.375 28.125Z" fill="#0088CF"/>
</svg>
