<svg width="36" height="36" viewBox="0 0 36 36" fill="none" xmlns="http://www.w3.org/2000/svg">
<path fill-rule="evenodd" clip-rule="evenodd" d="M19.75 16.9896V9.25C19.75 8.284 18.966 7.5 18 7.5C17.034 7.5 16.25 8.284 16.25 9.25V17.9805C16.2469 18.2893 16.3257 18.5944 16.4775 18.863C16.6481 19.1528 16.8729 19.3736 17.1419 19.5253L24.7027 23.8905C25.5393 24.3735 26.6103 24.0866 27.0933 23.25C27.5763 22.4134 27.2893 21.3425 26.4527 20.8595L19.75 16.9896ZM18 0.5C27.6652 0.5 35.5 8.33477 35.5 18C35.5 27.6652 27.6652 35.5 18 35.5C8.33477 35.5 0.5 27.6652 0.5 18C0.5 8.33477 8.33477 0.5 18 0.5Z" fill="#0088CF"/>
</svg>
