<svg width="48" height="65" viewBox="0 0 48 65" fill="none" xmlns="http://www.w3.org/2000/svg">
<path d="M1.8 65V51.86L22.32 29.63C22.68 29.21 23.19 28.64 23.85 27.92C24.57 27.2 25.05 26.69 25.29 26.39C25.59 26.09 25.95 25.7 26.37 25.22C26.85 24.68 27.15 24.26 27.27 23.96C27.45 23.6 27.6 23.24 27.72 22.88C27.9 22.46 27.99 22.04 27.99 21.62C27.99 20.6 27.63 19.76 26.91 19.1C26.19 18.38 25.14 18.02 23.76 18.02C20.4 18.02 17.91 20.15 16.29 24.41L0.45 15.77C2.55 10.79 5.64 7.01 9.72 4.43C13.86 1.85 18.45 0.559998 23.49 0.559998C29.67 0.559998 34.95 2.33 39.33 5.87C43.77 9.35 45.99 14.18 45.99 20.36C45.99 24.14 45.15 27.44 43.47 30.26C41.85 33.08 39.27 36.47 35.73 40.43L29.34 47.54H47.34V65H1.8Z" fill="#0088CF" fill-opacity="0.13"/>
</svg>
