<svg width="46" height="46" viewBox="0 0 46 46" fill="none" xmlns="http://www.w3.org/2000/svg">
<path d="M40.3 8.025C39.8 6.55 38.4 5.5 36.75 5.5H30.5V0.5H15.5V5.5H9.25C7.6 5.5 6.225 6.55 5.7 8.025L0.5 23V43C0.5 44.375 1.625 45.5 3 45.5H5.5C6.875 45.5 8 44.375 8 43V40.5H38V43C38 44.375 39.125 45.5 40.5 45.5H43C44.375 45.5 45.5 44.375 45.5 43V23L40.3 8.025ZM9.25 33C7.175 33 5.5 31.325 5.5 29.25C5.5 27.175 7.175 25.5 9.25 25.5C11.325 25.5 13 27.175 13 29.25C13 31.325 11.325 33 9.25 33ZM36.75 33C34.675 33 33 31.325 33 29.25C33 27.175 34.675 25.5 36.75 25.5C38.825 25.5 40.5 27.175 40.5 29.25C40.5 31.325 38.825 33 36.75 33ZM5.5 20.5L9.25 9.25H36.75L40.5 20.5H5.5Z" fill="#0088CF"/>
</svg>
